<svg xmlns="http://www.w3.org/2000/svg" viewBox="0 11.100000381469727 173.4499969482422 36.25" data-asc="0.9"><g fill="#0074f0"><g fill="#0074f0" transform="translate(0, 0)"><path d="M0.40 46.95Q0 46.95 0 46.50Q0 46.40 0.03 46.30Q0.05 46.20 0.10 46.05Q0.40 44.90 1.43 42.95Q2.45 41 3.98 38.58Q5.50 36.15 7.25 33.60Q6.95 32.55 7 31.90Q7.05 31.40 7.67 30.73Q8.30 30.05 9.08 29.57Q9.85 29.10 10.30 29.20Q12.25 26.55 13.95 24.35Q15.65 22.15 16.83 20.85Q18 19.55 18.30 19.55Q18.70 19.55 18.90 19.90Q19.10 20.25 19.10 20.55Q19.10 20.55 17.93 22.02Q16.75 23.50 14.88 25.93Q13.00 28.35 10.90 31.25Q10.95 31.30 10.95 31.40Q10.95 31.50 11.00 31.60L12.80 31.45Q15.35 31.25 18.20 30.52Q21.05 29.80 23.80 28.68Q26.55 27.55 28.70 26.10Q31.10 24.45 32.67 22.57Q34.25 20.70 34.25 19.15Q34.25 17.60 32.40 16.57Q30.55 15.55 26.15 15.55Q24.65 15.55 22.45 15.90Q20.25 16.25 17.73 16.85Q15.20 17.45 12.73 18.27Q10.25 19.10 8.23 20.05Q6.20 21 5 22Q4.20 22.70 4.45 23.15Q4.55 23.30 4.55 23.45Q4.55 23.55 4.45 23.55Q4.30 23.55 4.05 23.40Q3.25 22.90 2.88 22.13Q2.50 21.35 2.50 20.70Q2.50 20.10 2.70 19.90Q3.60 18.60 5.67 17.40Q7.75 16.20 10.55 15.20Q13.35 14.20 16.50 13.45Q19.65 12.70 22.68 12.30Q25.70 11.90 28.20 11.90Q30.25 11.90 31.65 12.20Q33.60 12.60 34.95 14.13Q36.30 15.65 36.30 17.85Q36.30 19.90 34.67 22.35Q33.05 24.80 29.10 27.10Q26.90 28.40 24.05 29.52Q21.20 30.65 18.28 31.40Q15.35 32.15 12.85 32.30Q12.45 32.35 12.05 32.35Q11.65 32.35 11.25 32.35Q12.05 34.35 13.78 36.48Q15.50 38.60 17.65 40.42Q19.80 42.25 21.95 43.38Q24.10 44.50 25.65 44.50Q26.85 44.50 27.83 43.92Q28.80 43.35 28.95 42.40Q28.95 42.20 29.15 42.23Q29.35 42.25 29.30 42.50Q29.10 44.25 27.40 45.05Q25.70 45.85 23.60 45.85Q20.90 45.85 18.48 44.85Q16.05 43.85 13.98 42.27Q11.90 40.70 10.38 38.85Q8.85 37 7.95 35.30Q5.80 38.45 3.98 41.35Q2.15 44.25 1.40 46.15Q1.30 46.50 0.98 46.73Q0.65 46.95 0.40 46.95ZM43.50 47.30Q39.50 47.30 36.70 46.02Q33.90 44.75 32.43 42.50Q30.95 40.25 30.95 37.35Q30.95 34.55 32.40 31.38Q33.85 28.20 36.90 24.90Q39.15 22.45 41.95 20.32Q44.75 18.20 47.68 16.45Q50.60 14.70 53.43 13.50Q56.25 12.30 58.60 11.75Q59.90 11.45 61.23 11.27Q62.55 11.10 63.80 11.10Q65.95 11.10 67.75 11.65Q69.55 12.20 70.65 13.40Q71.75 14.60 71.75 16.55Q71.75 17.65 71.38 18.70Q71 19.75 70.75 20.30Q70.60 20.60 70.45 20.60Q70.35 20.60 70.30 20.42Q70.25 20.25 70.35 20.05Q70.80 19.05 70.80 18.30Q70.80 17.05 69.73 16.47Q68.65 15.90 66.80 15.90Q64.70 15.90 61.85 16.55Q59 17.20 55.83 18.35Q52.65 19.50 49.50 21Q46.35 22.50 43.58 24.27Q40.80 26.05 38.80 27.90Q35.50 30.95 33.98 33.63Q32.45 36.30 32.45 38.40Q32.45 41.55 35.40 43.35Q38.35 45.15 43.30 45.15Q44.60 45.15 46 45Q47.40 44.85 48.90 44.60Q52.45 43.95 56.13 42.67Q59.80 41.40 63.17 39.58Q66.55 37.75 69.33 35.52Q72.10 33.30 73.85 30.80Q74.35 30.15 74.45 30.15Q74.50 30.15 74.50 30.30Q74.50 30.40 74.50 30.52Q74.50 30.65 74.40 30.90Q73.90 32.35 72.25 34.15Q70.60 35.95 68.10 37.83Q65.60 39.70 62.55 41.45Q59.50 43.20 56.15 44.58Q52.80 45.95 49.45 46.65Q46.35 47.30 43.50 47.30M40.40 30.90Q39.85 30.90 39.50 30.70Q39.30 30.60 39.10 30.32Q38.90 30.05 38.90 29.65Q38.90 29.05 39.78 28.35Q40.65 27.65 43.35 27.15Q44.25 27 45.35 26.90Q46.45 26.80 47.65 26.80Q49.75 26.80 51.93 27.07Q54.10 27.35 55.88 27.95Q57.65 28.55 58.50 29.50Q58.80 29.85 58.80 30.20Q58.80 30.60 58.40 30.60Q58.10 30.60 57.70 30.35Q56.85 29.75 55.38 29.45Q53.90 29.15 52 29.15Q48.65 29.15 44.65 30Q43.40 30.25 42.30 30.57Q41.20 30.90 40.40 30.90ZM80.60 46.95Q78.20 46.95 75.85 46.38Q73.50 45.80 71.55 44.55Q69.60 43.30 68.45 41.35Q67.30 39.40 67.30 36.65Q67.30 34.05 68.35 31.65Q69.40 29.25 71.08 27.15Q72.75 25.05 74.55 23.40Q77.10 21.10 80.35 18.95Q83.60 16.80 87.28 15.10Q90.95 13.40 94.70 12.40Q98.45 11.40 101.90 11.40Q103.40 11.40 105.18 11.85Q106.95 12.30 108.23 13.35Q109.50 14.40 109.50 16.30Q109.50 18 108.35 19.65Q107.20 21.30 105.30 22.75Q103.40 24.20 101.10 25.42Q98.80 26.65 96.43 27.57Q94.05 28.50 91.95 29.05Q89.85 29.60 88.40 29.75Q88.05 29.80 87.70 29.80Q87.35 29.80 87.00 29.80Q86.70 29.80 85.75 29.73Q84.80 29.65 83.95 29.40Q83.10 29.15 83.10 28.65Q83.10 28.40 83.40 28.40Q83.60 28.40 83.90 28.50Q84.20 28.60 84.65 28.60Q85.85 28.60 87.75 28Q89.65 27.40 91.88 26.38Q94.10 25.35 96.30 24.05Q98.50 22.75 100.35 21.30Q102.20 19.85 103.30 18.40Q104.40 16.95 104.40 15.65Q104.40 14.45 103.55 13.88Q102.70 13.30 101.55 13.10Q100.40 12.90 99.55 12.90Q96.40 12.90 93.08 13.85Q89.75 14.80 86.53 16.42Q83.30 18.05 80.43 20.05Q77.55 22.05 75.30 24.15Q73.75 25.60 72.23 27.47Q70.70 29.35 69.70 31.48Q68.70 33.60 68.70 35.85Q68.70 38.35 69.90 40.05Q71.10 41.75 73.03 42.77Q74.95 43.80 77.20 44.25Q79.45 44.70 81.50 44.70Q82.80 44.70 84.10 44.58Q85.40 44.45 86.65 44.25Q90.00 43.65 92.78 42.80Q95.55 41.95 98.10 40.60Q100.65 39.25 103.30 37.10Q103.50 37 103.55 37Q103.80 37 103.80 37.30Q103.80 37.45 103.60 37.75Q101.65 39.85 98.88 41.55Q96.10 43.25 92.95 44.45Q89.80 45.65 86.60 46.30Q83.40 46.95 80.60 46.95ZM115.85 46.95Q113.25 46.95 111.10 45.80Q108.95 44.65 107.68 42.50Q106.40 40.35 106.40 37.35Q106.40 35.10 107.28 32.38Q108.15 29.65 110.05 26.60Q111.95 23.60 114.38 21.10Q116.80 18.60 119.28 16.88Q121.75 15.15 123.75 14.50Q125.40 13.90 127.15 13.90Q129.25 13.90 130.80 15.10Q132.35 16.30 132.35 19.10Q132.35 20.05 132.15 20.97Q131.95 21.90 131.80 22.35Q131.75 22.65 131.60 22.65Q131.30 22.65 131.40 22.10Q131.50 21.65 131.58 21.27Q131.65 20.90 131.65 20.60Q131.65 19.40 130.95 18.88Q130.25 18.35 129.05 18.35Q127.35 18.35 125.00 19.25Q122.65 20.15 120.08 21.72Q117.50 23.30 115.20 25.27Q112.90 27.25 111.35 29.40Q109.40 32.10 108.45 34.50Q107.50 36.90 107.50 38.85Q107.50 41.45 109.18 43Q110.85 44.55 114.05 44.55Q115.50 44.55 117.20 44.23Q118.90 43.90 120.90 43.20Q123.85 42.15 126.88 40.20Q129.90 38.25 132.30 35.30Q134.55 32.50 136.30 28.43Q138.05 24.35 138.05 19.20Q138.05 16.45 137.58 14.97Q137.10 13.50 136.43 12.90Q135.75 12.30 135.15 12.30Q134.95 12.30 134.65 12.40Q134.60 12.40 134.58 12.42Q134.55 12.45 134.50 12.45Q134.35 12.45 134.35 12.30Q134.35 12.05 134.70 11.90Q135.10 11.75 135.60 11.75Q136.55 11.75 137.55 12.40Q138.55 13.05 139.28 14.60Q140 16.15 140 18.80Q140 22.50 138.83 25.72Q137.65 28.95 135.90 31.65Q134.15 34.35 132.45 36.50Q130.65 38.80 127.90 41.23Q125.15 43.65 122.15 45.25Q120.60 46.10 118.98 46.52Q117.35 46.95 115.85 46.95ZM170.50 47.35Q170.15 47.35 170.40 46.90Q170.70 46.30 170.70 45.80Q170.70 44.75 169.45 44.13Q168.20 43.50 166.03 43.25Q163.85 43 161.15 43Q157.80 43 154.05 43.30Q150.30 43.60 146.78 44Q143.25 44.40 140.58 44.80Q137.90 45.20 136.70 45.45Q135.90 45.60 135.08 44.92Q134.25 44.25 134.25 43.40Q134.25 42.60 135 42.05Q135.45 41.75 136.47 41.15Q137.50 40.55 138.25 40.20L138.40 40.10Q140.90 37.60 144.05 34.80Q147.20 32 150.72 29.23Q154.25 26.45 157.88 23.97Q161.50 21.50 164.95 19.63Q168.40 17.75 171.40 16.80Q170.45 15.95 168.15 15.55Q165.85 15.15 163 15.15Q159.95 15.15 156.70 15.57Q153.45 16 150.65 16.77Q147.85 17.55 146.10 18.65Q144.35 19.75 144.35 21.10Q144.35 21.90 145.20 22.90Q145.25 22.95 145.25 23.05Q145.25 23.10 145.15 23.10Q144.80 23.10 144.60 22.90Q143.60 21.95 143.60 20.65Q143.60 19.40 144.47 18.05Q145.35 16.70 146.88 15.50Q148.40 14.30 150.40 13.55Q152.80 12.65 155.75 12.23Q158.70 11.80 161.60 11.80Q164.95 11.80 168 12.35Q169.20 12.55 170.48 13.07Q171.75 13.60 172.58 14.52Q173.40 15.45 173.30 16.90Q173.45 17.05 173.45 17.25Q173.45 17.50 173.20 17.70Q173.15 18.05 173.05 18.40Q172.95 18.75 172.80 19.15Q172.65 19.55 172.50 19.47Q172.35 19.40 172.50 19.15Q172.70 18.55 172.65 18.05L172.50 18.15Q167.70 20.30 163.10 23.05Q158.50 25.80 154.35 28.75Q150.20 31.70 146.72 34.48Q143.25 37.25 140.70 39.50Q142.05 39.05 144.78 38.80Q147.50 38.55 150.75 38.55Q153.50 38.55 156.38 38.77Q159.25 39 161.93 39.48Q164.60 39.95 166.70 40.73Q168.80 41.50 170.05 42.63Q171.30 43.75 171.30 45.25Q171.30 46.10 170.95 46.85Q170.75 47.35 170.50 47.35Z"/></g></g></svg>